<svg viewBox="0 0 96 96" fill="none" stroke="#3B5A2A" stroke-width="5" stroke-linecap="round" stroke-linejoin="round" xmlns="http://www.w3.org/2000/svg">
  <path d="M28 22 C 18 18, 10 22, 10 30 C 18 34, 26 32, 30 28"></path>
  <path d="M68 22 C 78 18, 86 22, 86 30 C 78 34, 70 32, 66 28"></path>
  <path d="M30 26 C 32 32, 34 36, 36 40"></path>
  <path d="M66 26 C 64 32, 62 36, 60 40"></path>
  <path d="M30 26 C 26 40, 26 56, 32 70 C 36 80, 42 84, 48 84 C 54 84, 60 80, 64 70 C 70 56, 70 40, 66 26 C 60 22, 36 22, 30 26 Z"></path>
  <path d="M40 78 L 56 78"></path>
  <circle cx="40" cy="56" r="3" fill="#3B5A2A" stroke="none"></circle>
  <circle cx="56" cy="56" r="3" fill="#3B5A2A" stroke="none"></circle>
</svg>