<svg width="35" height="35" viewBox="0 0 35 35" fill="none" xmlns="http://www.w3.org/2000/svg">
<rect width="35" height="35" rx="4" fill="#ABCF98"/>
<rect x="5" y="5" width="24" height="27" stroke="#3B5A2A" stroke-width="2"/>
<path d="M12.7312 15.8443C12.3413 15.9516 12 16.2262 12 16.4364C12 16.6466 12.3413 16.9212 12.7312 17.0241L13.0888 17.1228H18.5H23.9112L24.2687 17.0241C24.6587 16.9212 25 16.6466 25 16.4364C25 16.2262 24.6587 15.9516 24.2687 15.8443L23.9112 15.7499H18.5H13.0888L12.7312 15.8443Z" fill="#3B5A2A"/>
<path d="M12.7312 12.4715C12.3412 12.5788 12 12.8534 12 13.0636C12 13.2738 12.3412 13.5484 12.7312 13.6513L13.0888 13.75H18.5H23.9113L24.2687 13.6513C24.6587 13.5484 25 13.2738 25 13.0636C25 12.8534 24.6587 12.5788 24.2687 12.4715L23.9113 12.3771H18.5H13.0888L12.7312 12.4715Z" fill="#3B5A2A"/>
<path d="M12.7312 8.9802C12.3413 9.09739 12 9.39739 12 9.62708C12 9.85676 12.3413 10.1568 12.7312 10.2693L13.0888 10.3771H18.5H23.9112L24.2687 10.2693C24.6587 10.1568 25 9.85676 25 9.62708C25 9.39739 24.6587 9.09739 24.2687 8.9802L23.9112 8.87708H18.5H13.0888L12.7312 8.9802Z" fill="#3B5A2A"/>
<line x1="21.5" y1="24" x2="21.5" y2="28.3" stroke="#3B5A2A" stroke-linecap="round"/>
<line x1="21.683" y1="23.6633" x2="25.1471" y2="21.6633" stroke="#3B5A2A" stroke-linecap="round"/>
<line x1="21.683" y1="28.6633" x2="25.1471" y2="26.6633" stroke="#3B5A2A" stroke-linecap="round"/>
<line x1="21.6471" y1="28.683" x2="18.183" y2="26.683" stroke="#3B5A2A" stroke-linecap="round"/>
<line x1="18.183" y1="21.567" x2="21.6471" y2="19.567" stroke="#3B5A2A" stroke-linecap="round"/>
<line x1="25.0739" y1="21.433" x2="21.783" y2="19.533" stroke="#3B5A2A" stroke-linecap="round"/>
<line x1="25.2" y1="21.5" x2="25.2" y2="26.5" stroke="#3B5A2A" stroke-linecap="round"/>
<line x1="18.2" y1="22" x2="18.2" y2="26.6" stroke="#3B5A2A" stroke-linecap="round"/>
<path d="M12.2812 19.7428C12.1313 19.8483 12 20.1183 12 20.325C12 20.5317 12.1313 20.8017 12.2812 20.903L12.4188 21H14.5H16.5813L16.7188 20.903C16.8688 20.8017 17 20.5317 17 20.325C17 20.1183 16.8688 19.8483 16.7188 19.7428L16.5813 19.65H14.5H12.4188L12.2812 19.7428Z" fill="#3B5A2A"/>
<path d="M12.2812 24.0928C12.1313 24.1983 12 24.4683 12 24.675C12 24.8817 12.1313 25.1517 12.2812 25.2529L12.4188 25.35H14.5H16.5813L16.7188 25.2529C16.8688 25.1517 17 24.8817 17 24.675C17 24.4683 16.8688 24.1983 16.7188 24.0928L16.5813 24H14.5H12.4188L12.2812 24.0928Z" fill="#3B5A2A"/>
<line x1="9" y1="9.92131" x2="11.1213" y2="7.79999" stroke="#3B5A2A" stroke-linecap="round"/>
<line x1="7.70711" y1="8.80005" x2="8.76777" y2="9.86071" stroke="#3B5A2A" stroke-linecap="round"/>
<line x1="9" y1="13.3212" x2="11.1213" y2="11.1999" stroke="#3B5A2A" stroke-linecap="round"/>
<line x1="7.70711" y1="12.2" x2="8.76777" y2="13.2606" stroke="#3B5A2A" stroke-linecap="round"/>
<line x1="9" y1="16.6213" x2="11.1213" y2="14.4999" stroke="#3B5A2A" stroke-linecap="round"/>
<line x1="7.70711" y1="15.5" x2="8.76777" y2="16.5607" stroke="#3B5A2A" stroke-linecap="round"/>
<line x1="9" y1="20.5213" x2="11.1213" y2="18.4" stroke="#3B5A2A" stroke-linecap="round"/>
<line x1="7.70711" y1="19.4" x2="8.76777" y2="20.4607" stroke="#3B5A2A" stroke-linecap="round"/>
<line x1="9" y1="24.9213" x2="11.1213" y2="22.8" stroke="#3B5A2A" stroke-linecap="round"/>
<line x1="7.70711" y1="23.8" x2="8.76777" y2="24.8607" stroke="#3B5A2A" stroke-linecap="round"/>
</svg>
