<svg viewBox="0 0 96 96" fill="none" stroke="#3B5A2A" stroke-width="5" stroke-linecap="round" stroke-linejoin="round" xmlns="http://www.w3.org/2000/svg">
  
  <path d="M36 24 C 28 14, 18 8, 12 12 C 14 22, 24 28, 34 30"></path>
  <path d="M60 24 C 68 14, 78 8, 84 12 C 82 22, 72 28, 62 30"></path>
  
  <path d="M30 32 C 20 34, 14 40, 14 48 C 22 48, 28 44, 32 40"></path>
  <path d="M66 32 C 76 34, 82 40, 82 48 C 74 48, 68 44, 64 40"></path>
  
  <path d="M36 28 C 32 40, 30 54, 34 68 C 38 78, 44 82, 48 82 C 52 82, 58 78, 62 68 C 66 54, 64 40, 60 28 C 56 24, 40 24, 36 28 Z"></path>
  
  <circle cx="40" cy="52" r="2.6" fill="#3B5A2A" stroke="none"></circle>
  <circle cx="56" cy="52" r="2.6" fill="#3B5A2A" stroke="none"></circle>
  
  <path d="M44 70 L 52 70"></path>
  
  <path d="M44 82 C 44 88, 48 92, 48 92 C 48 92, 52 88, 52 82"></path>
</svg>